# xmcd CD database file
#
# Track frame offsets:
#	150
#	21575
#	40906
#	52434
#	73549
#	88546
#	104481
#	123557
#	139222
#	151098
#	163701
#	181254
#	195716
#	210911
#	221400
#	239217
#	252982
#
# Disc length: 3516 seconds
#
# Revision: 0
# Processed by: cddbd v1.4PL0 Copyright (c) Steve Scherf et al.
# Submitted via: CDex 1.50
#
DISCID=010dba11
DTITLE=Larry Franco - Nuttin' But Nat
DYEAR=1999
DGENRE=Jazz
TTITLE0=Route 66
TTITLE1=Nat King Cole
TTITLE2=Capucina
TTITLE3=Embraceable You
TTITLE4=Straighten Up And Fly Right
TTITLE5=Avalon
TTITLE6=Stompin' At The Savoy
TTITLE7=It's Only A Paper Moon
TTITLE8=The Christmas Song
TTITLE9=I Can't Give You Anything But Love
TTITLE10=For Sentimental Reasons
TTITLE11=I'm In The Mood For Love
TTITLE12=Makin' Whoopee
TTITLE13=Orange Colored Sky
TTITLE14=This Can't Be Love
TTITLE15=Sweet Lorraine
TTITLE16=Walkin' My Baby Back Home
EXTD=YEAR: 1999
EXTT0=
EXTT1=
EXTT2=
EXTT3=
EXTT4=
EXTT5=
EXTT6=
EXTT7=
EXTT8=
EXTT9=
EXTT10=
EXTT11=
EXTT12=
EXTT13=
EXTT14=
EXTT15=
EXTT16=
PLAYORDER=
